<?xml version="1.0" standalone="no"?>
<!DOCTYPE svg PUBLIC "-//W3C//DTD SVG 20010904//EN"
 "http://www.w3.org/TR/2001/REC-SVG-20010904/DTD/svg10.dtd">
<svg version="1.0" xmlns="http://www.w3.org/2000/svg"
 width="576.000000pt" height="576.000000pt" viewBox="0 0 576.000000 576.000000"
 preserveAspectRatio="xMidYMid meet">
<metadata>
Created by potrace 1.11, written by Peter Selinger 2001-2013
</metadata>
<g transform="translate(0.000000,576.000000) scale(0.100000,-0.100000)"
fill="#000000" stroke="none">
<path d="M3424 5468 c-98 -111 -212 -241 -253 -288 -42 -47 -87 -98 -101 -114
-14 -15 -34 -38 -45 -50 -11 -12 -54 -60 -95 -106 -41 -46 -117 -127 -167
-179 -51 -53 -93 -97 -93 -98 0 -2 17 7 38 20 20 13 75 44 122 69 137 74 203
109 236 129 74 44 242 62 339 35 89 -25 119 -43 195 -121 208 -213 229 -227
341 -226 39 0 74 3 78 5 16 10 109 21 181 21 88 0 124 -12 272 -92 133 -71
193 -95 244 -95 89 0 176 64 224 165 l28 58 58 -53 c32 -29 70 -64 84 -78 27
-25 58 -54 245 -225 54 -49 108 -99 120 -110 82 -76 90 -80 44 -25 -57 68
-183 233 -348 455 -206 276 -260 349 -410 557 l-142 198 -224 -228 -223 -227
-32 30 c-17 17 -67 77 -109 135 -70 95 -122 173 -358 533 l-71 109 -178 -204z
m331 -296 c94 -136 205 -298 249 -361 l78 -114 -58 6 c-66 7 -80 10 -143 27
-90 24 -148 60 -232 146 -95 96 -195 154 -300 175 -55 11 -58 13 -44 29 8 9
15 22 15 28 0 7 4 12 8 12 4 0 61 68 126 150 66 83 122 150 125 150 3 -1 83
-112 176 -248z m902 -169 c26 -38 50 -70 53 -73 3 -3 16 -22 29 -42 12 -21 26
-38 30 -38 3 0 12 -12 19 -27 6 -16 30 -53 53 -83 l40 -55 -53 -47 c-57 -52
-114 -83 -177 -97 -46 -10 -135 16 -206 60 -22 14 -69 36 -105 49 -105 38
-103 36 -72 68 81 84 280 298 301 323 13 16 28 29 32 29 4 0 29 -30 56 -67z"/>
<path d="M2740 4048 c-112 -17 -209 -90 -258 -195 -38 -82 -38 -194 0 -274 32
-69 90 -129 160 -166 47 -25 63 -28 148 -28 112 0 162 20 236 92 232 225 36
618 -286 571z"/>
<path d="M2198 3515 c-26 -6 -73 -29 -105 -50 -86 -57 -487 -464 -625 -635
-86 -107 -120 -188 -119 -284 1 -158 73 -245 326 -396 179 -107 177 -105 370
-206 l140 -73 2 -423 c1 -455 2 -466 55 -515 35 -33 96 -55 154 -56 72 0 107
17 135 66 l24 42 0 583 c0 506 -2 585 -15 596 -14 11 -125 80 -433 269 -62 38
-113 70 -114 71 -2 1 35 40 279 298 l111 117 90 -147 c114 -189 130 -209 172
-221 19 -5 157 -8 307 -8 279 2 297 4 336 43 43 44 56 154 22 197 -39 49 -96
60 -308 62 -106 1 -197 6 -201 11 -5 5 -32 54 -61 109 -91 172 -98 184 -162
291 -67 112 -100 152 -165 202 -76 59 -140 76 -215 57z"/>
<path d="M1097 2084 c-1 -1 -32 -4 -69 -7 -245 -20 -501 -167 -658 -378 -298
-401 -230 -975 154 -1291 104 -86 269 -172 367 -192 13 -3 49 -10 79 -16 101
-20 273 -14 385 15 184 46 368 156 478 284 81 95 88 104 124 169 129 230 156
492 77 752 -105 346 -424 614 -781 655 -55 7 -152 12 -156 9z m127 -189 c156
-13 328 -98 452 -222 68 -69 105 -123 149 -216 49 -103 66 -177 70 -300 5
-186 -48 -350 -156 -487 -234 -298 -630 -385 -964 -212 -38 20 -72 39 -75 42
-3 3 -21 17 -41 32 -125 93 -227 250 -270 417 -21 78 -29 228 -17 306 11 64
56 196 87 249 130 226 348 370 596 392 39 4 72 8 73 10 2 1 9 1 15 -1 7 -2 43
-6 81 -10z"/>
<path d="M3577 2084 c-1 -1 -31 -4 -67 -8 -313 -29 -617 -246 -751 -536 -61
-131 -81 -221 -85 -380 -4 -154 2 -198 43 -325 91 -281 322 -509 611 -604 34
-11 80 -23 100 -26 21 -3 49 -8 62 -11 45 -9 224 -6 288 5 296 55 558 251 687
516 269 551 -31 1191 -630 1344 -53 13 -249 33 -258 25z m258 -215 c265 -82
456 -283 525 -554 33 -130 29 -270 -12 -403 -138 -451 -649 -671 -1073 -462
-44 22 -92 50 -106 62 -15 13 -41 34 -58 47 -41 32 -131 143 -165 205 -70 127
-96 239 -92 391 2 61 7 126 11 145 16 80 90 238 140 300 74 91 183 180 280
227 162 79 378 96 550 42z"/>
</g>
</svg>
