<?xml version="1.0" standalone="no"?>
<!DOCTYPE svg PUBLIC "-//W3C//DTD SVG 20010904//EN"
 "http://www.w3.org/TR/2001/REC-SVG-20010904/DTD/svg10.dtd">
<svg version="1.0" xmlns="http://www.w3.org/2000/svg"
 width="512.000000pt" height="512.000000pt" viewBox="0 0 512.000000 512.000000"
 preserveAspectRatio="xMidYMid meet">
<metadata>
Created by potrace 1.11, written by Peter Selinger 2001-2013
</metadata>
<g transform="translate(0.000000,512.000000) scale(0.100000,-0.100000)"
fill="#000000" stroke="none">
<path d="M524 4981 c-243 -39 -442 -223 -504 -467 -20 -75 -20 -119 -20 -1954
0 -1835 0 -1879 20 -1954 56 -218 216 -386 435 -453 57 -17 148 -18 2105 -18
1957 0 2048 1 2105 18 219 67 379 235 435 453 20 75 20 119 20 1954 0 1835 0
1879 -20 1954 -56 219 -219 388 -435 452 -82 24 -240 24 -319 0 -226 -68 -388
-236 -446 -463 l-11 -43 -1329 0 -1329 0 -11 43 c-58 224 -221 396 -439 461
-66 19 -189 27 -257 17z m199 -186 c173 -45 301 -184 328 -355 6 -41 8 -645 7
-1657 l-3 -1591 -60 45 c-230 175 -537 173 -763 -6 l-52 -41 0 1624 c0 1552 1
1627 18 1684 70 223 303 355 525 297z m3883 0 c147 -34 270 -150 316 -297 17
-57 18 -132 18 -1684 l0 -1624 -52 41 c-226 179 -533 181 -763 6 l-60 -45 -3
1591 c-1 1012 1 1616 7 1657 39 251 286 415 537 355z m-1606 -694 c0 -99 4
-191 10 -205 24 -65 114 -73 150 -13 18 29 20 51 20 215 l0 182 85 0 85 0 0
-85 c0 -127 27 -175 97 -175 63 1 83 41 83 164 l0 96 175 0 175 0 0 -1765 0
-1765 89 0 90 0 6 48 c32 239 232 406 465 389 92 -7 148 -26 220 -76 271 -186
248 -583 -44 -750 -91 -52 -66 -51 -1418 -51 l-1258 0 0 50 c0 55 -20 104 -45
114 -9 3 -31 6 -49 6 -50 0 -77 -35 -83 -109 l-6 -61 -83 0 -84 0 0 175 c0
129 -4 185 -14 210 -25 59 -84 73 -133 31 l-28 -24 -3 -196 -3 -196 -462 0
c-367 0 -475 3 -523 15 -244 57 -389 315 -314 559 37 120 152 239 270 281 72
26 186 31 255 10 187 -54 304 -188 330 -377 l6 -48 90 0 89 0 0 1765 0 1765
880 0 880 0 0 -179z"/>
<path d="M1592 3487 l-62 -62 100 -100 100 -100 -102 -102 -103 -103 63 -62
62 -63 98 98 c53 53 102 97 107 97 5 0 54 -44 107 -97 l98 -98 62 63 63 62
-103 102 -102 103 100 100 100 100 -63 63 -62 62 -100 -100 -100 -100 -100
100 -100 100 -63 -63z"/>
<path d="M1815 2858 c-11 -6 -25 -19 -32 -27 -33 -43 3 -297 47 -333 30 -24
81 -23 115 4 26 20 27 24 21 82 -15 152 -33 237 -52 256 -24 25 -73 34 -99 18z"/>
<path d="M1990 2382 c-39 -19 -56 -56 -46 -96 9 -38 86 -118 179 -188 90 -66
115 -75 158 -58 36 15 49 37 49 82 0 36 -22 62 -90 108 -19 13 -66 54 -105 91
-38 37 -79 69 -90 73 -11 3 -36 -2 -55 -12z"/>
<path d="M2460 2072 c-46 -47 -38 -107 18 -136 29 -14 120 -29 302 -47 63 -6
136 -13 162 -16 41 -4 50 -1 73 21 32 32 33 76 2 111 -31 36 -100 53 -287 71
-85 7 -174 17 -197 20 -38 6 -45 3 -73 -24z"/>
<path d="M3149 1871 c-49 -49 -39 -80 57 -177 28 -28 70 -78 92 -111 23 -33
48 -63 57 -67 82 -31 156 43 118 118 -29 58 -126 178 -181 222 -66 54 -100 57
-143 15z"/>
<path d="M3448 1379 c-29 -28 -30 -33 -24 -82 4 -29 11 -91 15 -140 6 -71 12
-92 31 -112 45 -48 130 -24 146 41 9 34 -14 229 -31 271 -25 59 -90 69 -137
22z"/>
</g>
</svg>
